<?xml version="1.0" encoding="utf-8"?>
<!-- Generator: Adobe Illustrator 18.0.0, SVG Export Plug-In . SVG Version: 6.00 Build 0)  -->
<!DOCTYPE svg PUBLIC "-//W3C//DTD SVG 1.1//EN" "http://www.w3.org/Graphics/SVG/1.1/DTD/svg11.dtd">
<svg version="1.1" id="Layer_1" xmlns="http://www.w3.org/2000/svg" xmlns:xlink="http://www.w3.org/1999/xlink" x="0px" y="0px"
	 viewBox="0 0 800 800" enable-background="new 0 0 800 800" xml:space="preserve">
<g>
	<g>
		<defs>
			<rect id="SVGID_1_" x="99.5" y="100.4" width="600" height="600"/>
		</defs>
		<defs>
			<path id="SVGID_2_" d="M498.4,371c-4.5,0.2-8.5,2.9-10.3,7c-4.4,0-8.7-0.1-13.1-0.2l-29.1-0.4l-29.1-0.4l-12.1-0.1
				c-2.1-3.1-5.7-5-9.4-4.9c-8.9-0.2-18.2,2.8-19.1,13c-0.8,8.9,5.7,15.3,14.3,16c18.3,1.5,37.2,0.5,55.5,0.7
				c17.4,0.2,35.7,2.2,53,0c8.6-1.1,18.4-5,18.4-15.4C517.2,376.3,507.6,370.4,498.4,371L498.4,371z"/>
		</defs>
		<clipPath id="SVGID_3_">
			<use xlink:href="#SVGID_1_"  overflow="visible"/>
		</clipPath>
		<clipPath id="SVGID_4_" clip-path="url(#SVGID_3_)">
			<use xlink:href="#SVGID_2_"  overflow="visible"/>
		</clipPath>
		<rect x="371" y="366" clip-path="url(#SVGID_4_)" fill="#F0F0F0" width="151.2" height="41.8"/>
	</g>
	<g>
		<defs>
			<rect id="SVGID_5_" x="99.5" y="100.4" width="600" height="600"/>
		</defs>
		<defs>
			<path id="SVGID_6_" d="M351.1,488.1c-4.5,0.2-8.5,2.9-10.3,7c-4.4,0-8.7-0.1-13.1-0.2l-29.1-0.4l-29.1-0.4l-12.1-0.1
				c-2.1-3.1-5.7-5-9.4-4.9c-8.9-0.2-18.2,2.8-19.1,13c-0.8,8.9,5.7,15.3,14.3,16c18.3,1.5,37.2,0.5,55.5,0.7
				c17.4,0.2,35.7,2.2,53,0c8.6-1.1,18.4-5,18.4-15.4C369.9,493.4,360.4,487.5,351.1,488.1L351.1,488.1z"/>
		</defs>
		<clipPath id="SVGID_7_">
			<use xlink:href="#SVGID_5_"  overflow="visible"/>
		</clipPath>
		<clipPath id="SVGID_8_" clip-path="url(#SVGID_7_)">
			<use xlink:href="#SVGID_6_"  overflow="visible"/>
		</clipPath>
		<rect x="223.8" y="483.1" clip-path="url(#SVGID_8_)" fill="#F0F0F0" width="151.2" height="41.8"/>
	</g>
	<g>
		<defs>
			<rect id="SVGID_9_" x="99.5" y="100.4" width="600" height="600"/>
		</defs>
		<defs>
			<path id="SVGID_10_" d="M629.8,490.2c-4.5,0.2-8.5,2.9-10.3,7c-4.4,0-8.7-0.1-13.1-0.2l-29.1-0.4l-29.1-0.4l-12.1-0.1
				c-2.1-3.1-5.7-5-9.4-4.9c-8.9-0.2-18.2,2.8-19.1,13c-0.8,8.9,5.7,15.3,14.3,16c18.3,1.5,37.2,0.5,55.5,0.7
				c17.4,0.2,35.7,2.2,53,0c8.6-1.1,18.4-5,18.4-15.4C648.7,495.5,639.1,489.6,629.8,490.2L629.8,490.2z"/>
		</defs>
		<clipPath id="SVGID_11_">
			<use xlink:href="#SVGID_9_"  overflow="visible"/>
		</clipPath>
		<clipPath id="SVGID_12_" clip-path="url(#SVGID_11_)">
			<use xlink:href="#SVGID_10_"  overflow="visible"/>
		</clipPath>
		<rect x="502.5" y="485.2" clip-path="url(#SVGID_12_)" fill="#F0F0F0" width="151.2" height="41.7"/>
	</g>
	<g>
		<defs>
			<rect id="SVGID_13_" x="99.5" y="100.4" width="600" height="600"/>
		</defs>
		<defs>
			<path id="SVGID_14_" d="M495.4,592.1c-4.5,0.2-8.5,2.9-10.3,7c-4.4,0-8.7-0.1-13.1-0.2l-29.1-0.4l-29.1-0.4l-12.1-0.1
				c-2.1-3.1-5.7-5-9.4-4.9c-8.9-0.2-18.2,2.8-19.1,13c-0.8,8.9,5.7,15.3,14.3,16c18.3,1.5,37.2,0.5,55.5,0.7
				c17.4,0.2,35.7,2.2,53,0c8.6-1.1,18.4-5,18.4-15.4C514.2,597.5,504.6,591.6,495.4,592.1L495.4,592.1z"/>
		</defs>
		<clipPath id="SVGID_15_">
			<use xlink:href="#SVGID_13_"  overflow="visible"/>
		</clipPath>
		<clipPath id="SVGID_16_" clip-path="url(#SVGID_15_)">
			<use xlink:href="#SVGID_14_"  overflow="visible"/>
		</clipPath>
		<rect x="368.1" y="587.1" clip-path="url(#SVGID_16_)" fill="#F0F0F0" width="151.2" height="41.8"/>
	</g>
	<g>
		<defs>
			<rect id="SVGID_17_" x="99.5" y="100.4" width="600" height="600"/>
		</defs>
		<defs>
			<path id="SVGID_18_" d="M502.8,308.8c-1.2-5.2-2.9-10.3-5.1-15.1c-1.6-3.6-3.9-7.7-8.1-10.2c-3.9-2.3-8.3-2.4-11.5-2.5
				c-6-0.1-12.2-0.4-18.2-0.7c-15.5-0.7-31.5-1.5-47-0.1c-6,0.5-12.8,2-18.1,9c-2.8,3.7-9.3,16.3-5.8,24.5c1.2,2.8,3.5,4.9,6.4,5.7
				v2.1c-0.5,20.5-1,38.2-0.3,59.3c0,1.5,0.7,2.9,1.8,3.9c1.1,1,2.6,1.5,4.1,1.3c9.8-0.9,19.5-0.2,29.8,0.5
				c4.6,0.3,9.4,0.7,14.2,0.8c2.9,0.1,5.8,0.2,8.7,0.1c9.9,0,19.7-0.5,29.3-1c1.7,0,3.4-0.4,4.9-1.2c4.6-2.6,4.7-8.1,4.7-9.9
				c0.3-18.2,0.4-36.6,0.4-54.9l2.1-0.2c1.9-0.1,3.7-0.8,5.2-2C502.1,316.9,504,314.1,502.8,308.8L502.8,308.8z M403.5,295.7
				c2.3-3.1,5.1-4.3,10.5-4.8c14.8-1.3,30.4-0.6,45.5,0.1c6.1,0.3,12.4,0.6,18.5,0.7c2.2,0,4.8,0.1,6.3,1c1.5,0.9,2.8,3.2,3.7,5.4
				c1.7,3.8,3,7.7,4,11.7c-30.9,3.1-62.1,2.9-93-0.6h-0.1C398.3,307,400.6,299.5,403.5,295.7L403.5,295.7L403.5,295.7z M437.6,376.2
				c0.8-11.4,0.9-22.8,0.5-34.2l13.8-0.9c0.6,11.8,0.8,23.8,0.7,35.6c-2.4,0-4.8,0-7.2-0.1C443,376.5,440.2,376.4,437.6,376.2
				L437.6,376.2L437.6,376.2z M481.8,375.3v0.5c-6.1,0.3-12.3,0.6-18.5,0.8c0.2-12.1,0-24.4-0.7-36.5c-0.1-1.6-0.3-5.9-3.9-8.4
				c-1.9-1.2-4.1-1.6-6.3-1.3l-20.3,1.3c-3,0.2-5.2,2.7-5,5.7c0.8,12.7,0.7,25.5-0.2,38.2c-7-0.5-14.1-0.7-21.1-0.5
				c-0.4-18.4,0-34.6,0.5-53.1v-1c14,1.3,28,2,42.1,2c11.3,0,22.6-0.4,33.9-1.3C482.2,339.4,482.1,357.5,481.8,375.3L481.8,375.3
				L481.8,375.3z"/>
		</defs>
		<clipPath id="SVGID_19_">
			<use xlink:href="#SVGID_17_"  overflow="visible"/>
		</clipPath>
		<clipPath id="SVGID_20_" clip-path="url(#SVGID_19_)">
			<use xlink:href="#SVGID_18_"  overflow="visible"/>
		</clipPath>
		<rect x="383.1" y="274.4" clip-path="url(#SVGID_20_)" fill="#474749" width="125.1" height="118.1"/>
	</g>
	<g>
		<defs>
			<rect id="SVGID_21_" x="99.5" y="100.4" width="600" height="600"/>
		</defs>
		<defs>
			<path id="SVGID_22_" d="M358.3,435.3l-3.9-17.8c-0.6-2.8-1.5-6.6-4.2-9.6c-4.6-5.2-11.9-5.3-15.8-5.4l-8.7-0.2
				c-17.9-0.4-36.3-0.7-54.5,0.2c-6.1,0.3-12.6,1.2-17.9,8.3c-6.8,9.1-13.5,19.5-10.5,27.1c1.2,3.1,4,6.6,10.8,7.5
				c-0.9,15.4-1.3,31.1-1.1,46.5c-0.2,3,0.7,5.9,2.4,8.3c3.1,3.8,8,4,10.3,4c15.6,0.4,31.4,0.7,47.1,0.7c8.9,0,17.7-0.1,26.6-0.2
				c2.3,0,8.4-0.1,11.5-5c1.2-2.2,1.8-4.7,1.6-7.2l-0.4-46.1c1.7-0.2,3.2-0.9,4.5-2C358.5,442.3,359.2,439.2,358.3,435.3
				L358.3,435.3z M262,417.3c2.2-3,4-3.7,9.8-4c17.8-0.9,36.1-0.5,53.8-0.2l8.7,0.2c3.3,0,6.6,0.3,7.9,1.8c0.9,1.5,1.5,3.1,1.7,4.8
				l3.5,15.6c-15.9-1.2-32-1.8-48-1.8c-13.5,0-26.9,0.4-40.3,1.2c-4.9,0.3-6.1-0.7-6.1-0.7C252.8,433.8,252.4,430.1,262,417.3
				L262,417.3z M294.9,462.7c4.2-0.2,8.5-0.2,12.7,0c0.7,10.4,1.1,21,1.1,31.5c-4.9,0-9.9,0-14.8-0.1l0.2-2.6
				C295,481.9,295.3,472.3,294.9,462.7L294.9,462.7L294.9,462.7z M341.3,493.8c-0.8,0.2-1.6,0.2-2.5,0.2c-6.4,0.1-12.9,0.2-19.3,0.2
				c0-12.3-0.5-24.8-1.5-37c-0.2-2.6-2.3-4.7-4.9-4.9c-6.4-0.5-12.9-0.6-19.4-0.3c-1.5,0.1-5.5,0.3-8,3.6c-1.3,2-1.9,4.5-1.6,6.9
				c0.4,9.4,0.1,18.8-0.8,28.2l-0.2,3.3c-5.9-0.1-11.7-0.2-17.5-0.4c-0.7,0-1.4-0.1-2.2-0.2c0-0.5-0.1-1.2-0.1-1.5
				c-0.2-15.4,0.2-31,1.1-46.4c25.5-1.4,51-1.3,76.5,0.4l0.4,46.8C341.3,492.9,341.3,493.4,341.3,493.8L341.3,493.8L341.3,493.8z"/>
		</defs>
		<clipPath id="SVGID_23_">
			<use xlink:href="#SVGID_21_"  overflow="visible"/>
		</clipPath>
		<clipPath id="SVGID_24_" clip-path="url(#SVGID_23_)">
			<use xlink:href="#SVGID_22_"  overflow="visible"/>
		</clipPath>
		<rect x="237.1" y="397" clip-path="url(#SVGID_24_)" fill="#474749" width="126.5" height="113"/>
	</g>
	<g>
		<defs>
			<rect id="SVGID_25_" x="99.5" y="100.4" width="600" height="600"/>
		</defs>
		<defs>
			<path id="SVGID_26_" d="M637.2,435.5c-2.2-7.9-5.3-15.6-9.2-22.8c-1.6-3.3-4-6.1-7.1-8.1c-3.8-2.2-8-2.2-11-2.2
				c-6.5,0-13.1,0-19.6-0.1c-13.3-0.2-27.1-0.4-40.5,0.5c-5.7,0.4-11.6,1.2-16.7,7.3c-1.5,1.8-3,5.4-6.2,13.6
				c-1.3,3.2-3.1,7.8-3.9,9.4c-1.5,1.5-2,3.8-1.2,5.8c0.8,2,2.7,3.3,4.8,3.4l6.5,0.2c-1.5,19.5-1.9,39-1.1,58.5
				c0.1,2.9,2.5,5.2,5.4,5.2c0.3,0,57.4,0,79.7-0.3c2.1,0,6.9-0.1,9.9-3.9c1.3-1.8,2-4,2.2-6.2c2-17.7,2.1-35.7,0.2-53.4l2.8-0.1
				c1.6-0.1,3.1-0.9,4.1-2.2s1.3-3,0.9-4.6V435.5L637.2,435.5z M536.8,427.6c1.5-3.8,3.7-9.4,4.6-10.8c2.1-2.4,4.2-3,9-3.3
				c13-0.9,26.6-0.7,39.7-0.5c6.5,0.1,13.2,0.2,19.8,0.1c2,0,4.3,0,5.6,0.7c1.3,1.1,2.4,2.5,3.1,4c2.4,4.4,4.5,9.1,6.2,13.9
				c-29.7,0.9-59.8,0.9-89.6,0C535.7,430.5,536.2,429.2,536.8,427.6L536.8,427.6z M573.1,474.6l1-12.5c4.6-0.4,9.2-0.2,13.8,0.5
				c0.4,10.9,0.3,21.8-0.4,32.8h-14C572.1,488.8,572.6,481.6,573.1,474.6L573.1,474.6L573.1,474.6z M618.3,494.6v0.5
				c-0.3,0-0.8,0-1.4,0.1c-4.8,0-11.4,0.1-18.6,0.1c0.7-11.4,0.8-22.9,0.3-34.3c0-2.1-0.7-4.2-2-5.9c-1.5-1.6-3.5-2.6-5.6-2.9
				c-7.5-1.3-15.2-1.4-22.8-0.2c-2.5,0.4-4.3,2.4-4.5,4.9l-1.3,16.8c-0.5,6.7-1.1,14.2,0.1,21.7h-20.1c-0.5-17.6,0-35.1,1.3-52.6
				c11.9,0.3,23.7,0.4,35.6,0.4c13,0,26.1-0.2,39.1-0.5C620.4,459.9,620.3,477.3,618.3,494.6L618.3,494.6L618.3,494.6z"/>
		</defs>
		<clipPath id="SVGID_27_">
			<use xlink:href="#SVGID_25_"  overflow="visible"/>
		</clipPath>
		<clipPath id="SVGID_28_" clip-path="url(#SVGID_27_)">
			<use xlink:href="#SVGID_26_"  overflow="visible"/>
		</clipPath>
		<rect x="516.3" y="397.2" clip-path="url(#SVGID_28_)" fill="#474749" width="126" height="114.1"/>
	</g>
	<g>
		<defs>
			<rect id="SVGID_29_" x="99.5" y="100.4" width="600" height="600"/>
		</defs>
		<defs>
			<path id="SVGID_30_" d="M501.1,536.7c-1.6-6.5-3.5-13.1-5.6-19.5c-1.2-5.4-6-9.3-11.6-9.2c-20.4-2-40.9-2.5-61.4-1.5h-3.7
				c-6.4,0-14.4,0-19.6,6.9c-1.2,1.6-2.3,4.6-5.9,14.8c-1.3,3.8-3.2,9-3.9,10.7c-1.3,1.6-1.6,3.7-0.7,5.6c0.8,1.9,2.6,3.1,4.6,3.2
				l0,0l5,0.2c-1.4,16.1-2.2,32.3-2.1,48.4c0,2,0,6.3,3.2,9.3c2.1,1.8,4.6,2.8,7.3,2.9c10.6,1.2,21.3,1.7,32,1.7
				c15.4,0,30.7-0.9,45.7-1.8c2.7,0.2,5.4-0.8,7.4-2.8s3-4.6,2.8-7.4c1.2-17.1,0.9-34.3-0.9-51.4c2.7,0,5.2-1.4,6.7-3.7
				C501.6,541.2,501.8,538.8,501.1,536.7L501.1,536.7z M403.4,531.9c1.5-4.2,3.7-10.6,4.5-12.1c1.9-2.3,5.4-2.5,10.9-2.5
				c1.3,0,2.8,0,4.2-0.1c20-1,40-0.4,59.9,1.5c0.6,0,1.2,0.1,1.8,0.3c0.2,0.5,0.5,1.1,0.6,1.6c1.7,5.2,3.3,10.5,4.7,15.8
				c-29.5,2-59,2.3-88.5,1C402.1,535.7,402.8,533.9,403.4,531.9L403.4,531.9L403.4,531.9z M438,599.5c0.1-0.5,0.2-1,0.2-1.4l0.4-31
				c4.5-0.5,9.1-0.8,13.6-0.8h0.1v0.4c0.9,10.8,1.2,21.7,1,32.5C448.1,599.4,443.1,599.5,438,599.5L438,599.5L438,599.5z
				 M483.9,597.5v0.1h-0.1c-6.6,0.4-13.2,0.8-19.8,1.1c0.2-11-0.1-22-1-33c-0.1-1.7-0.6-7-5.1-9.3c-1.5-0.7-3.2-1.1-4.9-1
				c-6.5,0-12.9,0.4-19.3,1.3c-3.4,0.3-6,3.3-5.8,6.7l-0.4,32c-0.5,0.7-0.8,1.6-0.8,2.4c-0.1,0.4-0.1,0.9,0,1.3
				c-6.2-0.2-12.5-0.7-18.6-1.3l-1-0.1v-1.5c0-15.9,0.6-32,2.1-47.9c9.2,0.3,18.4,0.5,27.7,0.5c15.5,0,30.9-0.5,46.3-1.3
				C484.8,564.2,485.1,580.9,483.9,597.5L483.9,597.5L483.9,597.5z"/>
		</defs>
		<clipPath id="SVGID_31_">
			<use xlink:href="#SVGID_29_"  overflow="visible"/>
		</clipPath>
		<clipPath id="SVGID_32_" clip-path="url(#SVGID_31_)">
			<use xlink:href="#SVGID_30_"  overflow="visible"/>
		</clipPath>
		<rect x="383.1" y="500.9" clip-path="url(#SVGID_32_)" fill="#474749" width="123.4" height="114.2"/>
	</g>
	<g>
		<defs>
			<rect id="SVGID_33_" x="99.5" y="100.4" width="600" height="600"/>
		</defs>
		<defs>
			<path id="SVGID_34_" d="M695.8,212c-3.1-3.9-6.1-7.6-103.1-8.5c-54.3-0.5-115.3,0.2-151.8,1.2c-42.8,1.1-83.4,2.3-122.8,3.4
				c-38.5,1.1-78.3,2.2-120.1,3.3c0.4-17.5,0.7-35.2,0.9-52.7l0,0c0-3.9,0.1-10.6-4.3-15.8c-4.4-5.2-11-6.3-15.6-6.7
				c-32.4-2.3-64.9,20.4-74,51.6c-3.4,11.8-3.7,24-4,34.8c-2.7,120-0.3,241.5,7.1,361.2c-4,17.4-0.3,54.6,22.3,71.9
				c9.9,7.6,22.1,9.7,34.7,9.7c8.4-0.2,16.9-0.8,25.3-1.9c4-0.4,7.7-0.9,11.3-1.1c11.8-1,22.3-2.1,32.5-3.1
				c21.3-2.3,39.8-4.2,61-3.6l174,5.3c69.5,2.1,141.4,4.3,212.2-0.7c3,0,5.9-1.1,8.3-3c4.2-3.6,4.2-8.8,4.3-10.8
				c0.4-41.3,1.3-95.6,2.2-153.1C700.7,218.2,699.5,216.6,695.8,212L695.8,212z M117.2,222.8c0.2-9.8,0.5-20.8,3.3-30.6
				c6.7-23.1,30-40.1,53.9-40.1c1.2,0,2.3,0,3.5,0.1c3.6,0.3,4.4,1,4.4,1c0.4,0.5,0.5,2.2,0.5,5.2c-0.4,36.6-1.3,73.8-2.2,109.7
				c-2.2,85.8-4.4,174.6,0.7,262.6v0.5c0.4,7,0.2,11.2-0.6,12.5c-1.3,1.2-8.1,0.6-11,0.3c-2.4-0.2-4.9-0.4-7.3-0.4
				c-14.8,0.4-28.9,6.2-39.5,16.5C116.6,448.2,114.7,334.8,117.2,222.8L117.2,222.8L117.2,222.8z M680.1,493.1
				c-0.9,56.6-1.8,110-2.2,151.2c-69.2,4.7-139.8,2.5-208.2,0.5l-174-5.3c-22.3-0.7-41.2,1.3-63.2,3.6c-10,1.1-20.4,2.2-32.1,3.1
				c-3.8,0.3-7.7,0.7-11.8,1.2c-17.4,1.9-37,4.1-48.4-4.6c-17.3-13.2-19.1-45.4-16.1-56.2c0-0.1,0-0.2,0.1-0.4
				c6.5-15.6,21.6-26,38.5-26.4c1.6,0,3.6,0.1,5.7,0.3c7.8,0.6,18.4,1.5,24.8-6.2c4.8-5.9,4.7-14.9,4.2-23.7v-0.4
				c-5-87.4-2.8-175.8-0.7-261.2c0.3-13.5,0.7-27.2,1-41c42.2-1.1,82.2-2.2,120.9-3.3c39.3-1.1,79.9-2.3,122.7-3.4
				c82.3-2.1,215.9-1.9,240.9,2.4C684.1,248.8,681.9,383.5,680.1,493.1L680.1,493.1z"/>
		</defs>
		<defs>
			<rect id="SVGID_35_" x="99.5" y="-91.6" width="612" height="792"/>
		</defs>
		<clipPath id="SVGID_36_">
			<use xlink:href="#SVGID_33_"  overflow="visible"/>
		</clipPath>
		<clipPath id="SVGID_37_" clip-path="url(#SVGID_36_)">
			<use xlink:href="#SVGID_34_"  overflow="visible"/>
		</clipPath>
		<clipPath id="SVGID_38_" clip-path="url(#SVGID_37_)">
			<use xlink:href="#SVGID_35_"  overflow="visible"/>
		</clipPath>
		<rect x="95" y="131" clip-path="url(#SVGID_38_)" fill="#474749" width="609.1" height="539.4"/>
	</g>
	<g>
		<defs>
			<rect id="SVGID_39_" x="99.5" y="100.4" width="600" height="600"/>
		</defs>
		<defs>
			<path id="SVGID_40_" d="M367.4,477c-1.4,0-2.6-0.7-3.4-1.8s-0.9-2.6-0.3-3.8c3.3-7.5,4.8-10.9,14.1-14c3.1-0.9,6.2-1.4,9.4-1.3
				c3.7-0.1,5.7-0.2,7.8-0.3s4.2-0.2,7.9-0.3c2.2-0.1,4.1,1.7,4.2,3.9s-1.7,4.1-3.9,4.2c-3.6,0.1-5.7,0.2-7.8,0.3
				c-2.1,0.1-4.2,0.2-7.9,0.3c-2.4,0-4.8,0.3-7.2,0.9c-5.9,2-6.1,2.6-9.3,9.6C370.4,476,369,476.9,367.4,477L367.4,477L367.4,477z"
				/>
		</defs>
		<clipPath id="SVGID_41_">
			<use xlink:href="#SVGID_39_"  overflow="visible"/>
		</clipPath>
		<clipPath id="SVGID_42_" clip-path="url(#SVGID_41_)">
			<use xlink:href="#SVGID_40_"  overflow="visible"/>
		</clipPath>
		<rect x="358.3" y="450.3" clip-path="url(#SVGID_42_)" fill="#19BAD7" width="53.7" height="31.7"/>
	</g>
	<g>
		<defs>
			<rect id="SVGID_43_" x="99.5" y="100.4" width="600" height="600"/>
		</defs>
		<defs>
			<path id="SVGID_44_" d="M564.2,330.8c-5.5,0-10.8-2-14.9-5.6c-3.6-3.1-5.9-7.1-8.1-10.9c-2.2-3.8-4.3-7.5-7.4-9.7
				c-5.1-3.6-12.4-2.9-20.1-1.8c-1.4,0.2-2.9-0.3-3.8-1.5c-0.9-1.2-1.1-2.7-0.6-4.1c0.6-1.4,1.8-2.3,3.3-2.5
				c8.9-1.3,18.3-2,25.8,3.2c4.6,3.2,7.3,7.8,9.8,12.3c2,3.4,3.8,6.6,6.4,8.9c3.8,3.2,9,4.3,13.7,2.9c2.1-0.7,4.4,0.5,5.1,2.7
				c0.7,2.1-0.5,4.4-2.7,5.1C568.6,330.5,566.4,330.8,564.2,330.8L564.2,330.8z"/>
		</defs>
		<clipPath id="SVGID_45_">
			<use xlink:href="#SVGID_43_"  overflow="visible"/>
		</clipPath>
		<clipPath id="SVGID_46_" clip-path="url(#SVGID_45_)">
			<use xlink:href="#SVGID_44_"  overflow="visible"/>
		</clipPath>
		<rect x="504" y="288.9" clip-path="url(#SVGID_46_)" fill="#19BAD7" width="74.6" height="46.9"/>
	</g>
	<g>
		<defs>
			<rect id="SVGID_47_" x="99.5" y="100.4" width="600" height="600"/>
		</defs>
		<defs>
			<path id="SVGID_48_" d="M345.6,276.5h-99.4c-3,0-5.4-2.4-5.4-5.4c0-3,2.4-5.4,5.4-5.4h99.4c3,0,5.4,2.4,5.4,5.4
				C351,274.1,348.5,276.5,345.6,276.5L345.6,276.5z"/>
		</defs>
		<clipPath id="SVGID_49_">
			<use xlink:href="#SVGID_47_"  overflow="visible"/>
		</clipPath>
		<clipPath id="SVGID_50_" clip-path="url(#SVGID_49_)">
			<use xlink:href="#SVGID_48_"  overflow="visible"/>
		</clipPath>
		<rect x="235.8" y="260.7" clip-path="url(#SVGID_50_)" fill="#474749" width="120.2" height="20.8"/>
	</g>
	<g>
		<defs>
			<rect id="SVGID_51_" x="99.5" y="100.4" width="600" height="600"/>
		</defs>
		<defs>
			<path id="SVGID_52_" d="M301.1,295.6h-55.2c-3,0-5.4-2.4-5.4-5.4c0-3,2.4-5.4,5.4-5.4h55.2c3,0,5.4,2.4,5.4,5.4
				C306.5,293.2,304.1,295.6,301.1,295.6L301.1,295.6z"/>
		</defs>
		<clipPath id="SVGID_53_">
			<use xlink:href="#SVGID_51_"  overflow="visible"/>
		</clipPath>
		<clipPath id="SVGID_54_" clip-path="url(#SVGID_53_)">
			<use xlink:href="#SVGID_52_"  overflow="visible"/>
		</clipPath>
		<rect x="235.5" y="279.9" clip-path="url(#SVGID_54_)" fill="#474749" width="75.9" height="20.8"/>
	</g>
	<g>
		<defs>
			<rect id="SVGID_55_" x="99.5" y="100.4" width="600" height="600"/>
		</defs>
		<defs>
			<path id="SVGID_56_" d="M341.8,295.6h-21.5c-3,0-5.4-2.4-5.4-5.4c0-3,2.4-5.4,5.4-5.4h21.5c3,0,5.4,2.4,5.4,5.4
				C347.2,293.2,344.8,295.6,341.8,295.6L341.8,295.6z"/>
		</defs>
		<clipPath id="SVGID_57_">
			<use xlink:href="#SVGID_55_"  overflow="visible"/>
		</clipPath>
		<clipPath id="SVGID_58_" clip-path="url(#SVGID_57_)">
			<use xlink:href="#SVGID_56_"  overflow="visible"/>
		</clipPath>
		<rect x="309.9" y="279.9" clip-path="url(#SVGID_58_)" fill="#474749" width="42.3" height="20.8"/>
	</g>
	<g>
		<defs>
			<rect id="SVGID_59_" x="99.5" y="100.4" width="600" height="600"/>
		</defs>
		<defs>
			<path id="SVGID_60_" d="M345.6,314.8h-99.4c-3,0-5.4-2.4-5.4-5.4c0-3,2.4-5.4,5.4-5.4h99.4c3,0,5.4,2.4,5.4,5.4
				C351,312.4,348.5,314.8,345.6,314.8L345.6,314.8z"/>
		</defs>
		<clipPath id="SVGID_61_">
			<use xlink:href="#SVGID_59_"  overflow="visible"/>
		</clipPath>
		<clipPath id="SVGID_62_" clip-path="url(#SVGID_61_)">
			<use xlink:href="#SVGID_60_"  overflow="visible"/>
		</clipPath>
		<rect x="235.8" y="299.1" clip-path="url(#SVGID_62_)" fill="#474749" width="120.2" height="20.8"/>
	</g>
	<g>
		<defs>
			<rect id="SVGID_63_" x="99.5" y="100.4" width="600" height="600"/>
		</defs>
		<defs>
			<path id="SVGID_64_" d="M280.7,353.2H246c-3,0-5.4-2.4-5.4-5.4c0-3,2.4-5.4,5.4-5.4h34.7c3,0,5.4,2.4,5.4,5.4
				C286.1,350.8,283.7,353.2,280.7,353.2L280.7,353.2L280.7,353.2z"/>
		</defs>
		<clipPath id="SVGID_65_">
			<use xlink:href="#SVGID_63_"  overflow="visible"/>
		</clipPath>
		<clipPath id="SVGID_66_" clip-path="url(#SVGID_65_)">
			<use xlink:href="#SVGID_64_"  overflow="visible"/>
		</clipPath>
		<rect x="235.6" y="337.4" clip-path="url(#SVGID_66_)" fill="#474749" width="55.5" height="20.8"/>
	</g>
	<g>
		<defs>
			<rect id="SVGID_67_" x="99.5" y="100.4" width="600" height="600"/>
		</defs>
		<defs>
			<path id="SVGID_68_" d="M314.3,334H246c-3,0-5.4-2.4-5.4-5.4c0-3,2.4-5.4,5.4-5.4h68.3c3,0,5.4,2.4,5.4,5.4
				C319.6,331.6,317.2,334,314.3,334L314.3,334z"/>
		</defs>
		<clipPath id="SVGID_69_">
			<use xlink:href="#SVGID_67_"  overflow="visible"/>
		</clipPath>
		<clipPath id="SVGID_70_" clip-path="url(#SVGID_69_)">
			<use xlink:href="#SVGID_68_"  overflow="visible"/>
		</clipPath>
		<rect x="235.6" y="318.2" clip-path="url(#SVGID_70_)" fill="#474749" width="89" height="20.8"/>
	</g>
	<g>
		<defs>
			<rect id="SVGID_71_" x="99.5" y="100.4" width="600" height="600"/>
		</defs>
		<defs>
			<path id="SVGID_72_" d="M346.6,353.2h-46.7c-3,0-5.4-2.4-5.4-5.4c0-3,2.4-5.4,5.4-5.4h46.7c3,0,5.4,2.4,5.4,5.4
				C352,350.8,349.6,353.2,346.6,353.2L346.6,353.2z"/>
		</defs>
		<clipPath id="SVGID_73_">
			<use xlink:href="#SVGID_71_"  overflow="visible"/>
		</clipPath>
		<clipPath id="SVGID_74_" clip-path="url(#SVGID_73_)">
			<use xlink:href="#SVGID_72_"  overflow="visible"/>
		</clipPath>
		<rect x="289.5" y="337.4" clip-path="url(#SVGID_74_)" fill="#474749" width="67.5" height="20.8"/>
	</g>
	<g>
		<defs>
			<rect id="SVGID_75_" x="99.5" y="100.4" width="600" height="600"/>
		</defs>
		<defs>
			<path id="SVGID_76_" d="M280.7,603.8H246c-3,0-5.4-2.4-5.4-5.4s2.4-5.4,5.4-5.4h34.7c3,0,5.4,2.4,5.4,5.4
				S283.7,603.8,280.7,603.8L280.7,603.8L280.7,603.8z"/>
		</defs>
		<clipPath id="SVGID_77_">
			<use xlink:href="#SVGID_75_"  overflow="visible"/>
		</clipPath>
		<clipPath id="SVGID_78_" clip-path="url(#SVGID_77_)">
			<use xlink:href="#SVGID_76_"  overflow="visible"/>
		</clipPath>
		<rect x="235.6" y="588" clip-path="url(#SVGID_78_)" fill="#474749" width="55.5" height="20.8"/>
	</g>
	<g>
		<defs>
			<rect id="SVGID_79_" x="99.5" y="100.4" width="600" height="600"/>
		</defs>
		<defs>
			<path id="SVGID_80_" d="M314.3,584.6H246c-3,0-5.4-2.4-5.4-5.4c0-3,2.4-5.4,5.4-5.4h68.3c3,0,5.4,2.4,5.4,5.4
				C319.6,582.2,317.2,584.6,314.3,584.6L314.3,584.6z"/>
		</defs>
		<clipPath id="SVGID_81_">
			<use xlink:href="#SVGID_79_"  overflow="visible"/>
		</clipPath>
		<clipPath id="SVGID_82_" clip-path="url(#SVGID_81_)">
			<use xlink:href="#SVGID_80_"  overflow="visible"/>
		</clipPath>
		<rect x="235.6" y="568.8" clip-path="url(#SVGID_82_)" fill="#474749" width="89" height="20.8"/>
	</g>
	<g>
		<defs>
			<rect id="SVGID_83_" x="99.5" y="100.4" width="600" height="600"/>
		</defs>
		<defs>
			<path id="SVGID_84_" d="M346.6,603.8h-46.7c-3,0-5.4-2.4-5.4-5.4s2.4-5.4,5.4-5.4h46.7c3,0,5.4,2.4,5.4,5.4
				S349.6,603.8,346.6,603.8L346.6,603.8z"/>
		</defs>
		<clipPath id="SVGID_85_">
			<use xlink:href="#SVGID_83_"  overflow="visible"/>
		</clipPath>
		<clipPath id="SVGID_86_" clip-path="url(#SVGID_85_)">
			<use xlink:href="#SVGID_84_"  overflow="visible"/>
		</clipPath>
		<rect x="289.5" y="588" clip-path="url(#SVGID_86_)" fill="#474749" width="67.5" height="20.8"/>
	</g>
	<g>
		<defs>
			<rect id="SVGID_87_" x="99.5" y="100.4" width="600" height="600"/>
		</defs>
		<defs>
			<path id="SVGID_88_" d="M648.6,320.8h-63.5c-3,0-5.4-2.4-5.4-5.4s2.4-5.4,5.4-5.4h63.5c3,0,5.4,2.4,5.4,5.4
				S651.5,320.8,648.6,320.8L648.6,320.8z"/>
		</defs>
		<clipPath id="SVGID_89_">
			<use xlink:href="#SVGID_87_"  overflow="visible"/>
		</clipPath>
		<clipPath id="SVGID_90_" clip-path="url(#SVGID_89_)">
			<use xlink:href="#SVGID_88_"  overflow="visible"/>
		</clipPath>
		<rect x="574.7" y="305.1" clip-path="url(#SVGID_90_)" fill="#474749" width="84.2" height="20.8"/>
	</g>
	<g>
		<defs>
			<rect id="SVGID_91_" x="99.5" y="100.4" width="600" height="600"/>
		</defs>
		<defs>
			<path id="SVGID_92_" d="M636.4,340.1h-51.5c-3,0-5.4-2.4-5.4-5.4s2.4-5.4,5.4-5.4h51.5c3,0,5.4,2.4,5.4,5.4
				S639.4,340.1,636.4,340.1L636.4,340.1L636.4,340.1z"/>
		</defs>
		<clipPath id="SVGID_93_">
			<use xlink:href="#SVGID_91_"  overflow="visible"/>
		</clipPath>
		<clipPath id="SVGID_94_" clip-path="url(#SVGID_93_)">
			<use xlink:href="#SVGID_92_"  overflow="visible"/>
		</clipPath>
		<rect x="574.5" y="324.3" clip-path="url(#SVGID_94_)" fill="#474749" width="72.3" height="20.8"/>
	</g>
	<g>
		<defs>
			<rect id="SVGID_95_" x="99.5" y="100.4" width="600" height="600"/>
		</defs>
		<defs>
			<path id="SVGID_96_" d="M465.3,456.3h-39.5c-3,0-5.4-2.4-5.4-5.4c0-3,2.4-5.4,5.4-5.4h39.5c3,0,5.4,2.4,5.4,5.4
				C470.7,453.9,468.3,456.3,465.3,456.3L465.3,456.3z"/>
		</defs>
		<clipPath id="SVGID_97_">
			<use xlink:href="#SVGID_95_"  overflow="visible"/>
		</clipPath>
		<clipPath id="SVGID_98_" clip-path="url(#SVGID_97_)">
			<use xlink:href="#SVGID_96_"  overflow="visible"/>
		</clipPath>
		<rect x="415.4" y="440.5" clip-path="url(#SVGID_98_)" fill="#474749" width="60.3" height="20.8"/>
	</g>
	<g>
		<defs>
			<rect id="SVGID_99_" x="99.5" y="100.4" width="600" height="600"/>
		</defs>
		<defs>
			<path id="SVGID_100_" d="M477.1,475.5h-51.5c-3,0-5.4-2.4-5.4-5.4c0-3,2.4-5.4,5.4-5.4h51.5c3,0,5.4,2.4,5.4,5.4
				C482.5,473.1,480.1,475.5,477.1,475.5L477.1,475.5L477.1,475.5z"/>
		</defs>
		<clipPath id="SVGID_101_">
			<use xlink:href="#SVGID_99_"  overflow="visible"/>
		</clipPath>
		<clipPath id="SVGID_102_" clip-path="url(#SVGID_101_)">
			<use xlink:href="#SVGID_100_"  overflow="visible"/>
		</clipPath>
		<rect x="415.3" y="459.7" clip-path="url(#SVGID_102_)" fill="#474749" width="72.3" height="20.8"/>
	</g>
</g>
</svg>
