<?xml version="1.0" encoding="utf-8"?>
<!-- Generator: Adobe Illustrator 18.0.0, SVG Export Plug-In . SVG Version: 6.00 Build 0)  -->
<!DOCTYPE svg PUBLIC "-//W3C//DTD SVG 1.1//EN" "http://www.w3.org/Graphics/SVG/1.1/DTD/svg11.dtd">
<svg version="1.1" id="Layer_1" xmlns="http://www.w3.org/2000/svg" xmlns:xlink="http://www.w3.org/1999/xlink" x="0px" y="0px"
	 viewBox="0 0 800 800" enable-background="new 0 0 800 800" xml:space="preserve">
<g>
	<g>
		<defs>
			<rect id="SVGID_1_" x="102.3" y="159.4" width="595" height="483"/>
		</defs>
		<defs>
			<path id="SVGID_2_" d="M141.3,427.4l0.6-0.1c-0.5,0.1-0.6,0.1-0.1,0h0.3c0.5,0,0.4,0-0.1,0c0.3,0,0.6,0.1,0.9,0.2
				c-0.9-0.3,0.2,0.2,0.4,0.3c1.9,1.1,4.3,0.5,5.4-1.4c1-1.9,0.4-4.2-1.4-5.4c-2.4-1.6-5.4-2.1-8.2-1.3c-2.1,0.6-3.3,2.7-2.8,4.8
				C137,426.7,139.2,427.9,141.3,427.4L141.3,427.4L141.3,427.4z"/>
		</defs>
		<clipPath id="SVGID_3_">
			<use xlink:href="#SVGID_1_"  overflow="visible"/>
		</clipPath>
		<clipPath id="SVGID_4_" clip-path="url(#SVGID_3_)">
			<use xlink:href="#SVGID_2_"  overflow="visible"/>
		</clipPath>
		<rect x="131.3" y="414.4" clip-path="url(#SVGID_4_)" fill="#F0F0F0" width="23" height="19"/>
	</g>
	<g>
		<defs>
			<rect id="SVGID_5_" x="102.3" y="159.4" width="595" height="483"/>
		</defs>
		<defs>
			<path id="SVGID_6_" d="M124.7,211.5H636c5.8,0,10.5,4.7,10.5,10.5v304.1H114.2V222C114.2,216.2,118.9,211.5,124.7,211.5
				L124.7,211.5z"/>
		</defs>
		<clipPath id="SVGID_7_">
			<use xlink:href="#SVGID_5_"  overflow="visible"/>
		</clipPath>
		<clipPath id="SVGID_8_" clip-path="url(#SVGID_7_)">
			<use xlink:href="#SVGID_6_"  overflow="visible"/>
		</clipPath>
		<rect x="109.2" y="206.5" clip-path="url(#SVGID_8_)" fill="#FFFFFF" width="542.4" height="324.6"/>
	</g>
	<g>
		<defs>
			<rect id="SVGID_9_" x="102.3" y="159.4" width="595" height="483"/>
		</defs>
		<defs>
			<path id="SVGID_10_" d="M119.4,526.1h527.1v94.4c0,5.8-4.7,10.5-10.5,10.5H130c-5.8,0-10.5-4.7-10.5-10.5V526.1L119.4,526.1z"/>
		</defs>
		<clipPath id="SVGID_11_">
			<use xlink:href="#SVGID_9_"  overflow="visible"/>
		</clipPath>
		<clipPath id="SVGID_12_" clip-path="url(#SVGID_11_)">
			<use xlink:href="#SVGID_10_"  overflow="visible"/>
		</clipPath>
		<rect x="114.4" y="521.1" clip-path="url(#SVGID_12_)" fill="#FFFFFF" width="537.1" height="114.9"/>
	</g>
	<g>
		<defs>
			<rect id="SVGID_13_" x="102.3" y="159.4" width="595" height="483"/>
		</defs>
		<defs>
			<path id="SVGID_14_" d="M645.9,407.8c-0.8,0-1.5-0.2-2.2-0.5c-27.8-13-58.6-18.1-89.2-14.7l-3,0.3c-7.2,0.9-14.7,1.7-22.2-0.3
				c-6.9-1.8-28.7-10.3-29.6-10.6c-2.6-1.1-3.9-4.1-2.9-6.7c1-2.7,4-4,6.7-3c6.1,2.4,23.2,8.9,28.5,10.2c5.6,1.5,11.8,0.7,18.3,0
				l3.1-0.4c32.5-3.6,65.3,1.9,94.8,15.7c2.2,1,3.4,3.5,2.9,5.9C650.5,406.2,648.3,407.9,645.9,407.8L645.9,407.8L645.9,407.8z"/>
		</defs>
		<clipPath id="SVGID_15_">
			<use xlink:href="#SVGID_13_"  overflow="visible"/>
		</clipPath>
		<clipPath id="SVGID_16_" clip-path="url(#SVGID_15_)">
			<use xlink:href="#SVGID_14_"  overflow="visible"/>
		</clipPath>
		<rect x="491.4" y="366.9" clip-path="url(#SVGID_16_)" fill="#F0F0F0" width="164.7" height="45.9"/>
	</g>
	<g>
		<defs>
			<rect id="SVGID_17_" x="102.3" y="159.4" width="595" height="483"/>
		</defs>
		<defs>
			<path id="SVGID_18_" d="M214.8,395.7c-12.2,0-23.7-3.5-34.9-7c-4.6-1.4-9.3-2.8-13.9-3.9c-8.7-2.2-30.3-5.9-42.6,6.2
				c-2.1,2-5.3,1.9-7.4-0.1c-2-2-2-5.3-0.1-7.3c15.5-15.3,39.5-12.2,52.6-9c4.9,1.2,9.8,2.7,14.5,4.1c11.4,3.5,22.1,6.8,33.2,6.5
				c8.2-0.2,16.2-2.4,24.7-4.7c5.7-1.7,11.6-3.1,17.5-4.1c2.8-0.4,5.5,1.5,5.9,4.3c0.5,2.8-1.4,5.5-4.2,6c-5.5,1-11,2.3-16.4,3.9
				c-8.7,2.4-17.7,4.8-27.2,5.1L214.8,395.7L214.8,395.7z"/>
		</defs>
		<clipPath id="SVGID_19_">
			<use xlink:href="#SVGID_17_"  overflow="visible"/>
		</clipPath>
		<clipPath id="SVGID_20_" clip-path="url(#SVGID_19_)">
			<use xlink:href="#SVGID_18_"  overflow="visible"/>
		</clipPath>
		<rect x="109.4" y="367" clip-path="url(#SVGID_20_)" fill="#F0F0F0" width="159.9" height="33.8"/>
	</g>
	<g>
		<defs>
			<rect id="SVGID_21_" x="102.3" y="159.4" width="595" height="483"/>
		</defs>
		<defs>
			<path id="SVGID_22_" d="M167.9,416.2c-0.6,0-1.2-0.1-1.8-0.4c-5.1-2.6-11-3.5-16.7-2.4c-1.4,0.3-2.8-0.2-3.8-1.3
				c-0.9-1.1-1.2-2.6-0.8-3.9c0.5-1.3,1.6-2.3,3-2.6c7.4-1.4,15.1-0.3,21.8,3.1c1.6,0.8,2.5,2.7,2,4.4
				C171.3,415,169.7,416.2,167.9,416.2L167.9,416.2L167.9,416.2z"/>
		</defs>
		<clipPath id="SVGID_23_">
			<use xlink:href="#SVGID_21_"  overflow="visible"/>
		</clipPath>
		<clipPath id="SVGID_24_" clip-path="url(#SVGID_23_)">
			<use xlink:href="#SVGID_22_"  overflow="visible"/>
		</clipPath>
		<rect x="139.6" y="400.1" clip-path="url(#SVGID_24_)" fill="#F0F0F0" width="37.2" height="21.1"/>
	</g>
	<g>
		<defs>
			<rect id="SVGID_25_" x="102.3" y="159.4" width="595" height="483"/>
		</defs>
		<defs>
			<path id="SVGID_26_" d="M194.5,423.8h-2.6c-2.2,0-4-1.8-4-3.9c0-2.2,1.8-3.9,4-3.9h2.6c2.2,0,4,1.8,4,3.9
				C198.5,422.1,196.7,423.8,194.5,423.8L194.5,423.8z"/>
		</defs>
		<clipPath id="SVGID_27_">
			<use xlink:href="#SVGID_25_"  overflow="visible"/>
		</clipPath>
		<clipPath id="SVGID_28_" clip-path="url(#SVGID_27_)">
			<use xlink:href="#SVGID_26_"  overflow="visible"/>
		</clipPath>
		<rect x="183" y="411" clip-path="url(#SVGID_28_)" fill="#F0F0F0" width="20.5" height="17.9"/>
	</g>
	<g>
		<defs>
			<rect id="SVGID_29_" x="102.3" y="159.4" width="595" height="483"/>
		</defs>
		<defs>
			<path id="SVGID_30_" d="M544.5,417.8h-0.3c-5.4-0.4-10.7-1.7-15.6-3.9c-1.9-0.9-2.8-3.2-1.9-5.2c0.9-2,3.2-2.9,5.1-2
				c4.1,1.8,8.5,2.9,13,3.2c2.2,0.1,3.9,1.9,3.8,4.1C548.6,416.2,546.7,417.9,544.5,417.8L544.5,417.8L544.5,417.8z"/>
		</defs>
		<clipPath id="SVGID_31_">
			<use xlink:href="#SVGID_29_"  overflow="visible"/>
		</clipPath>
		<clipPath id="SVGID_32_" clip-path="url(#SVGID_31_)">
			<use xlink:href="#SVGID_30_"  overflow="visible"/>
		</clipPath>
		<rect x="521.4" y="401.5" clip-path="url(#SVGID_32_)" fill="#F0F0F0" width="32.3" height="21.4"/>
	</g>
	<g>
		<defs>
			<rect id="SVGID_33_" x="102.3" y="159.4" width="595" height="483"/>
		</defs>
		<defs>
			<path id="SVGID_34_" d="M580.7,418.6h-13.2c-2.2,0-4-1.8-4-3.9s1.8-3.9,4-3.9h13.2c2.2,0,4,1.8,4,3.9S582.9,418.6,580.7,418.6
				L580.7,418.6z"/>
		</defs>
		<clipPath id="SVGID_35_">
			<use xlink:href="#SVGID_33_"  overflow="visible"/>
		</clipPath>
		<clipPath id="SVGID_36_" clip-path="url(#SVGID_35_)">
			<use xlink:href="#SVGID_34_"  overflow="visible"/>
		</clipPath>
		<rect x="558.5" y="405.7" clip-path="url(#SVGID_36_)" fill="#F0F0F0" width="31.1" height="17.9"/>
	</g>
	<g>
		<defs>
			<rect id="SVGID_37_" x="102.3" y="159.4" width="595" height="483"/>
		</defs>
		<defs>
			<path id="SVGID_38_" d="M562.2,355.7h-29c-2.2,0-4-1.8-4-3.9c0-2.2,1.8-3.9,4-3.9h29c2.2,0,4,1.8,4,3.9
				C566.2,353.9,564.4,355.7,562.2,355.7L562.2,355.7z"/>
		</defs>
		<clipPath id="SVGID_39_">
			<use xlink:href="#SVGID_37_"  overflow="visible"/>
		</clipPath>
		<clipPath id="SVGID_40_" clip-path="url(#SVGID_39_)">
			<use xlink:href="#SVGID_38_"  overflow="visible"/>
		</clipPath>
		<rect x="524.3" y="342.8" clip-path="url(#SVGID_40_)" fill="#F0F0F0" width="46.9" height="17.9"/>
	</g>
	<g>
		<defs>
			<rect id="SVGID_41_" x="102.3" y="159.4" width="595" height="483"/>
		</defs>
		<defs>
			<path id="SVGID_42_" d="M576.7,339.9H557c-2.2,0-4-1.8-4-3.9c0-2.2,1.8-3.9,4-3.9h19.8c2.2,0,4,1.8,4,3.9
				C580.7,338.2,578.9,339.9,576.7,339.9L576.7,339.9z"/>
		</defs>
		<clipPath id="SVGID_43_">
			<use xlink:href="#SVGID_41_"  overflow="visible"/>
		</clipPath>
		<clipPath id="SVGID_44_" clip-path="url(#SVGID_43_)">
			<use xlink:href="#SVGID_42_"  overflow="visible"/>
		</clipPath>
		<rect x="548" y="327.1" clip-path="url(#SVGID_44_)" fill="#F0F0F0" width="37.7" height="17.9"/>
	</g>
	<g>
		<defs>
			<rect id="SVGID_45_" x="102.3" y="159.4" width="595" height="483"/>
		</defs>
		<defs>
			<path id="SVGID_46_" d="M184,254.8h-27.7c-2.2,0-4-1.8-4-3.9s1.8-3.9,4-3.9H184c2.2,0,4,1.8,4,3.9S186.2,254.8,184,254.8
				L184,254.8z"/>
		</defs>
		<clipPath id="SVGID_47_">
			<use xlink:href="#SVGID_45_"  overflow="visible"/>
		</clipPath>
		<clipPath id="SVGID_48_" clip-path="url(#SVGID_47_)">
			<use xlink:href="#SVGID_46_"  overflow="visible"/>
		</clipPath>
		<rect x="147.4" y="241.9" clip-path="url(#SVGID_48_)" fill="#F0F0F0" width="45.6" height="17.9"/>
	</g>
	<g>
		<defs>
			<rect id="SVGID_49_" x="102.3" y="159.4" width="595" height="483"/>
		</defs>
		<defs>
			<path id="SVGID_50_" d="M195.9,270.5h-23.7c-2.2,0-4-1.8-4-3.9c0-2.2,1.8-3.9,4-3.9h23.7c2.2,0,4,1.8,4,3.9
				C199.8,268.7,198,270.5,195.9,270.5L195.9,270.5z"/>
		</defs>
		<clipPath id="SVGID_51_">
			<use xlink:href="#SVGID_49_"  overflow="visible"/>
		</clipPath>
		<clipPath id="SVGID_52_" clip-path="url(#SVGID_51_)">
			<use xlink:href="#SVGID_50_"  overflow="visible"/>
		</clipPath>
		<rect x="163.2" y="257.6" clip-path="url(#SVGID_52_)" fill="#F0F0F0" width="41.6" height="17.9"/>
	</g>
	<g>
		<defs>
			<rect id="SVGID_53_" x="102.3" y="159.4" width="595" height="483"/>
		</defs>
		<defs>
			<path id="SVGID_54_" d="M597.8,227.2h-46.1c-2.2,0-4-1.8-4-3.9c0-2.2,1.8-3.9,4-3.9h46.1c2.2,0,4,1.8,4,3.9
				C601.8,225.5,600,227.2,597.8,227.2L597.8,227.2z"/>
		</defs>
		<clipPath id="SVGID_55_">
			<use xlink:href="#SVGID_53_"  overflow="visible"/>
		</clipPath>
		<clipPath id="SVGID_56_" clip-path="url(#SVGID_55_)">
			<use xlink:href="#SVGID_54_"  overflow="visible"/>
		</clipPath>
		<rect x="542.7" y="214.4" clip-path="url(#SVGID_56_)" fill="#F0F0F0" width="64" height="17.9"/>
	</g>
	<g>
		<defs>
			<rect id="SVGID_57_" x="102.3" y="159.4" width="595" height="483"/>
		</defs>
		<defs>
			<path id="SVGID_58_" d="M541.1,499.9c-2.9,0-5.3-2.3-5.3-5.2v-26.2c0-2.9,2.4-5.2,5.3-5.2c2.9,0,5.3,2.3,5.3,5.2v26.2
				C546.4,497.5,544.1,499.9,541.1,499.9L541.1,499.9z"/>
		</defs>
		<clipPath id="SVGID_59_">
			<use xlink:href="#SVGID_57_"  overflow="visible"/>
		</clipPath>
		<clipPath id="SVGID_60_" clip-path="url(#SVGID_59_)">
			<use xlink:href="#SVGID_58_"  overflow="visible"/>
		</clipPath>
		<rect x="530.9" y="458.2" clip-path="url(#SVGID_60_)" fill="#F0F0F0" width="20.5" height="46.7"/>
	</g>
	<g>
		<defs>
			<rect id="SVGID_61_" x="102.3" y="159.4" width="595" height="483"/>
		</defs>
		<defs>
			<path id="SVGID_62_" d="M567.5,503.8c-2.9,0-5.3-2.3-5.3-5.2v-41.9c0-2.9,2.4-5.2,5.3-5.2c2.9,0,5.3,2.3,5.3,5.2v41.9
				C572.8,501.4,570.4,503.8,567.5,503.8L567.5,503.8z"/>
		</defs>
		<clipPath id="SVGID_63_">
			<use xlink:href="#SVGID_61_"  overflow="visible"/>
		</clipPath>
		<clipPath id="SVGID_64_" clip-path="url(#SVGID_63_)">
			<use xlink:href="#SVGID_62_"  overflow="visible"/>
		</clipPath>
		<rect x="557.2" y="446.4" clip-path="url(#SVGID_64_)" fill="#F0F0F0" width="20.5" height="62.4"/>
	</g>
	<g>
		<defs>
			<rect id="SVGID_65_" x="102.3" y="159.4" width="595" height="483"/>
		</defs>
		<defs>
			<path id="SVGID_66_" d="M159,498.5c-2.9,0-5.3-2.3-5.3-5.2v-10.5c0-2.9,2.4-5.2,5.3-5.2s5.3,2.3,5.3,5.2v10.5
				C164.2,496.2,161.9,498.5,159,498.5L159,498.5z"/>
		</defs>
		<clipPath id="SVGID_67_">
			<use xlink:href="#SVGID_65_"  overflow="visible"/>
		</clipPath>
		<clipPath id="SVGID_68_" clip-path="url(#SVGID_67_)">
			<use xlink:href="#SVGID_66_"  overflow="visible"/>
		</clipPath>
		<rect x="148.7" y="472.6" clip-path="url(#SVGID_68_)" fill="#F0F0F0" width="20.5" height="31"/>
	</g>
	<g>
		<defs>
			<rect id="SVGID_69_" x="102.3" y="159.4" width="595" height="483"/>
		</defs>
		<defs>
			<path id="SVGID_70_" d="M176.1,499.9c-2.9,0-5.3-2.3-5.3-5.2v-26.2c0-2.9,2.4-5.2,5.3-5.2c2.9,0,5.3,2.3,5.3,5.2v26.2
				C181.4,497.5,179,499.9,176.1,499.9L176.1,499.9z"/>
		</defs>
		<clipPath id="SVGID_71_">
			<use xlink:href="#SVGID_69_"  overflow="visible"/>
		</clipPath>
		<clipPath id="SVGID_72_" clip-path="url(#SVGID_71_)">
			<use xlink:href="#SVGID_70_"  overflow="visible"/>
		</clipPath>
		<rect x="165.8" y="458.2" clip-path="url(#SVGID_72_)" fill="#F0F0F0" width="20.5" height="46.7"/>
	</g>
	<g>
		<defs>
			<rect id="SVGID_73_" x="102.3" y="159.4" width="595" height="483"/>
		</defs>
		<defs>
			<path id="SVGID_74_" d="M205.1,501.2c-2.9,0-5.3-2.3-5.3-5.2v-18.3c0-2.9,2.4-5.2,5.3-5.2s5.3,2.3,5.3,5.2v18.3
				C210.4,498.8,208,501.2,205.1,501.2L205.1,501.2z"/>
		</defs>
		<clipPath id="SVGID_75_">
			<use xlink:href="#SVGID_73_"  overflow="visible"/>
		</clipPath>
		<clipPath id="SVGID_76_" clip-path="url(#SVGID_75_)">
			<use xlink:href="#SVGID_74_"  overflow="visible"/>
		</clipPath>
		<rect x="194.8" y="467.3" clip-path="url(#SVGID_76_)" fill="#F0F0F0" width="20.5" height="38.8"/>
	</g>
	<g>
		<defs>
			<rect id="SVGID_77_" x="102.3" y="159.4" width="595" height="483"/>
		</defs>
		<defs>
			<path id="SVGID_78_" d="M618.9,503.8c-2.9,0-5.3-2.3-5.3-5.2v-17c0-2.9,2.4-5.2,5.3-5.2c2.9,0,5.3,2.3,5.3,5.2v17
				C624.2,501.4,621.8,503.8,618.9,503.8L618.9,503.8z"/>
		</defs>
		<clipPath id="SVGID_79_">
			<use xlink:href="#SVGID_77_"  overflow="visible"/>
		</clipPath>
		<clipPath id="SVGID_80_" clip-path="url(#SVGID_79_)">
			<use xlink:href="#SVGID_78_"  overflow="visible"/>
		</clipPath>
		<rect x="608.6" y="471.3" clip-path="url(#SVGID_80_)" fill="#F0F0F0" width="20.5" height="37.5"/>
	</g>
	<g>
		<defs>
			<rect id="SVGID_81_" x="102.3" y="159.4" width="595" height="483"/>
		</defs>
		<defs>
			<path id="SVGID_82_" d="M521.4,340.5H244.6c-8.1,0-13.2-9.3-9.1-16.7l27.2-48.7c1.8-3.3,5.3-5.5,9.1-5.5h222.5
				c3.8,0,7.3,2.1,9.1,5.5l27.2,48.7C534.6,331.2,529.6,340.5,521.4,340.5L521.4,340.5z"/>
		</defs>
		<clipPath id="SVGID_83_">
			<use xlink:href="#SVGID_81_"  overflow="visible"/>
		</clipPath>
		<clipPath id="SVGID_84_" clip-path="url(#SVGID_83_)">
			<use xlink:href="#SVGID_82_"  overflow="visible"/>
		</clipPath>
		<rect x="229.1" y="264.5" clip-path="url(#SVGID_84_)" fill="#19BAD7" width="307.9" height="81"/>
	</g>
	<g>
		<defs>
			<rect id="SVGID_85_" x="102.3" y="159.4" width="595" height="483"/>
		</defs>
		<defs>
			<path id="SVGID_86_" d="M421.9,520.9V385.5c0-1.4-0.5-2.8-1.5-3.8c-1-1-2.3-1.6-3.8-1.6h-67.2c-1.4,0-2.8,0.6-3.8,1.6
				c-1,1-1.5,2.4-1.5,3.8v135.4"/>
		</defs>
		<clipPath id="SVGID_87_">
			<use xlink:href="#SVGID_85_"  overflow="visible"/>
		</clipPath>
		<clipPath id="SVGID_88_" clip-path="url(#SVGID_87_)">
			<use xlink:href="#SVGID_86_"  overflow="visible"/>
		</clipPath>
		<rect x="339.1" y="375.1" clip-path="url(#SVGID_88_)" fill="#19BAD7" width="87.8" height="150.8"/>
	</g>
	<g>
		<defs>
			<rect id="SVGID_89_" x="102.3" y="159.4" width="595" height="483"/>
		</defs>
		<defs>
			<path id="SVGID_90_" d="M373.6,461.2c4.4,0,7.9-3.5,7.9-7.9s-3.5-7.9-7.9-7.9c-4.4,0-7.9,3.5-7.9,7.9S369.2,461.2,373.6,461.2
				L373.6,461.2z"/>
		</defs>
		<clipPath id="SVGID_91_">
			<use xlink:href="#SVGID_89_"  overflow="visible"/>
		</clipPath>
		<clipPath id="SVGID_92_" clip-path="url(#SVGID_91_)">
			<use xlink:href="#SVGID_90_"  overflow="visible"/>
		</clipPath>
		<rect x="360.7" y="440.4" clip-path="url(#SVGID_92_)" fill="#FFFFFF" width="25.8" height="25.7"/>
	</g>
	<g>
		<defs>
			<rect id="SVGID_93_" x="102.3" y="159.4" width="595" height="483"/>
		</defs>
		<defs>
			<path id="SVGID_94_" d="M651.8,531.3H114.2V222c0-8.7,7.1-15.7,15.8-15.7H636c8.7,0,15.8,7,15.8,15.7V531.3L651.8,531.3z
				 M124.7,520.8h516.6V222c0-2.9-2.4-5.2-5.3-5.2H130c-2.9,0-5.3,2.3-5.3,5.2V520.8L124.7,520.8z"/>
		</defs>
		<clipPath id="SVGID_95_">
			<use xlink:href="#SVGID_93_"  overflow="visible"/>
		</clipPath>
		<clipPath id="SVGID_96_" clip-path="url(#SVGID_95_)">
			<use xlink:href="#SVGID_94_"  overflow="visible"/>
		</clipPath>
		<rect x="109.2" y="201.3" clip-path="url(#SVGID_96_)" fill="#474749" width="547.7" height="335.1"/>
	</g>
	<g>
		<defs>
			<rect id="SVGID_97_" x="102.3" y="159.4" width="595" height="483"/>
		</defs>
		<defs>
			<path id="SVGID_98_" d="M636,636.2H130c-8.7,0-15.8-7-15.8-15.7v-99.6h537.7v99.6C651.8,629.1,644.8,636.2,636,636.2L636,636.2z
				 M124.7,531.3v89.1c0,2.9,2.4,5.2,5.3,5.2H636c2.9,0,5.3-2.3,5.3-5.2v-89.1H124.7L124.7,531.3z"/>
		</defs>
		<clipPath id="SVGID_99_">
			<use xlink:href="#SVGID_97_"  overflow="visible"/>
		</clipPath>
		<clipPath id="SVGID_100_" clip-path="url(#SVGID_99_)">
			<use xlink:href="#SVGID_98_"  overflow="visible"/>
		</clipPath>
		<rect x="109.2" y="515.8" clip-path="url(#SVGID_100_)" fill="#474749" width="547.7" height="125.3"/>
	</g>
	<g>
		<defs>
			<rect id="SVGID_101_" x="102.3" y="159.4" width="595" height="483"/>
		</defs>
		<defs>
			<path id="SVGID_102_" d="M651.8,531.3H114.2V222c0-8.7,7.1-15.7,15.8-15.7H636c8.7,0,15.8,7,15.8,15.7V531.3L651.8,531.3z
				 M124.7,520.8h516.6V222c0-2.9-2.4-5.2-5.3-5.2H130c-2.9,0-5.3,2.3-5.3,5.2V520.8L124.7,520.8z"/>
		</defs>
		<clipPath id="SVGID_103_">
			<use xlink:href="#SVGID_101_"  overflow="visible"/>
		</clipPath>
		<clipPath id="SVGID_104_" clip-path="url(#SVGID_103_)">
			<use xlink:href="#SVGID_102_"  overflow="visible"/>
		</clipPath>
		<rect x="109.2" y="201.3" clip-path="url(#SVGID_104_)" fill="#474749" width="547.7" height="335.1"/>
	</g>
	<g>
		<defs>
			<rect id="SVGID_105_" x="102.3" y="159.4" width="595" height="483"/>
		</defs>
		<defs>
			<path id="SVGID_106_" d="M636,636.2H130c-8.7,0-15.8-7-15.8-15.7v-99.6h537.7v99.6C651.8,629.1,644.8,636.2,636,636.2L636,636.2z
				 M124.7,531.3v89.1c0,2.9,2.4,5.2,5.3,5.2H636c2.9,0,5.3-2.3,5.3-5.2v-89.1H124.7L124.7,531.3z"/>
		</defs>
		<clipPath id="SVGID_107_">
			<use xlink:href="#SVGID_105_"  overflow="visible"/>
		</clipPath>
		<clipPath id="SVGID_108_" clip-path="url(#SVGID_107_)">
			<use xlink:href="#SVGID_106_"  overflow="visible"/>
		</clipPath>
		<rect x="109.2" y="515.8" clip-path="url(#SVGID_108_)" fill="#474749" width="547.7" height="125.3"/>
	</g>
	<g>
		<defs>
			<rect id="SVGID_109_" x="102.3" y="159.4" width="595" height="483"/>
		</defs>
		<defs>
			<path id="SVGID_110_" d="M596.5,583.7H263.1c-2.9,0-5.3-2.3-5.3-5.2c0-2.9,2.4-5.2,5.3-5.2h333.4c2.9,0,5.3,2.3,5.3,5.2
				C601.8,581.4,599.4,583.7,596.5,583.7L596.5,583.7z"/>
		</defs>
		<clipPath id="SVGID_111_">
			<use xlink:href="#SVGID_109_"  overflow="visible"/>
		</clipPath>
		<clipPath id="SVGID_112_" clip-path="url(#SVGID_111_)">
			<use xlink:href="#SVGID_110_"  overflow="visible"/>
		</clipPath>
		<rect x="252.8" y="568.3" clip-path="url(#SVGID_112_)" fill="#474749" width="354" height="20.5"/>
	</g>
	<g>
		<defs>
			<rect id="SVGID_113_" x="102.3" y="159.4" width="595" height="483"/>
		</defs>
		<defs>
			<path id="SVGID_114_" d="M458.2,594.2c8.7,0,15.8-7,15.8-15.7s-7.1-15.7-15.8-15.7c-8.7,0-15.8,7-15.8,15.7
				S449.5,594.2,458.2,594.2L458.2,594.2z"/>
		</defs>
		<clipPath id="SVGID_115_">
			<use xlink:href="#SVGID_113_"  overflow="visible"/>
		</clipPath>
		<clipPath id="SVGID_116_" clip-path="url(#SVGID_115_)">
			<use xlink:href="#SVGID_114_"  overflow="visible"/>
		</clipPath>
		<rect x="437.4" y="557.8" clip-path="url(#SVGID_116_)" fill="#19BAD7" width="41.6" height="41.5"/>
	</g>
	<g>
		<defs>
			<rect id="SVGID_117_" x="102.3" y="159.4" width="595" height="483"/>
		</defs>
		<defs>
			<path id="SVGID_118_" d="M458.2,599.5c-11.6,0-21.1-9.4-21.1-21c0-11.6,9.4-21,21.1-21c11.6,0,21.1,9.4,21.1,21
				C479.3,590.1,469.9,599.5,458.2,599.5L458.2,599.5z M458.2,568c-5.8,0-10.5,4.7-10.5,10.5s4.7,10.5,10.5,10.5
				c5.8,0,10.5-4.7,10.5-10.5S464,568,458.2,568L458.2,568z"/>
		</defs>
		<clipPath id="SVGID_119_">
			<use xlink:href="#SVGID_117_"  overflow="visible"/>
		</clipPath>
		<clipPath id="SVGID_120_" clip-path="url(#SVGID_119_)">
			<use xlink:href="#SVGID_118_"  overflow="visible"/>
		</clipPath>
		<rect x="432.1" y="552.5" clip-path="url(#SVGID_120_)" fill="#474749" width="52.2" height="51.9"/>
	</g>
	<g>
		<defs>
			<rect id="SVGID_121_" x="102.3" y="159.4" width="595" height="483"/>
		</defs>
		<defs>
			<polygon id="SVGID_122_" points="214.4,578.5 168.7,604.7 168.7,552.3 214.4,578.5 214.4,578.5 			"/>
		</defs>
		<clipPath id="SVGID_123_">
			<use xlink:href="#SVGID_121_"  overflow="visible"/>
		</clipPath>
		<clipPath id="SVGID_124_" clip-path="url(#SVGID_123_)">
			<use xlink:href="#SVGID_122_"  overflow="visible"/>
		</clipPath>
		<rect x="163.7" y="547.3" clip-path="url(#SVGID_124_)" fill="#19BAD7" width="55.7" height="62.4"/>
	</g>
	<g>
		<defs>
			<rect id="SVGID_125_" x="102.3" y="159.4" width="595" height="483"/>
		</defs>
		<defs>
			<path id="SVGID_126_" d="M168.7,610c-2.9,0-5.3-2.3-5.3-5.2v-52.4c0-1.9,1-3.6,2.6-4.5c1.6-0.9,3.6-0.9,5.3,0L217,574
				c1.6,0.9,2.6,2.7,2.6,4.5s-1,3.6-2.6,4.5l-45.7,26.2C170.5,609.7,169.6,610,168.7,610L168.7,610z M174,561.4v34.3l29.8-17.1
				L174,561.4L174,561.4z"/>
		</defs>
		<clipPath id="SVGID_127_">
			<use xlink:href="#SVGID_125_"  overflow="visible"/>
		</clipPath>
		<clipPath id="SVGID_128_" clip-path="url(#SVGID_127_)">
			<use xlink:href="#SVGID_126_"  overflow="visible"/>
		</clipPath>
		<rect x="158.4" y="542" clip-path="url(#SVGID_128_)" fill="#474749" width="66.2" height="72.9"/>
	</g>
	<g>
		<defs>
			<rect id="SVGID_129_" x="102.3" y="159.4" width="595" height="483"/>
		</defs>
		<defs>
			<path id="SVGID_130_" d="M521.4,344.4H244.6c-5.7,0-10.9-3-13.7-7.9c-2.8-4.9-2.8-10.9,0.1-15.8l27.1-46c2.8-4.8,8-7.8,13.6-7.8
				h222.5c5.6,0,10.8,3,13.6,7.8l27.2,46c2.9,4.9,2.9,10.9,0.1,15.8C532.3,341.4,527.1,344.4,521.4,344.4L521.4,344.4L521.4,344.4z
				 M271.7,277.4c-1.9,0-3.6,1-4.5,2.6l-27.2,46c-0.9,1.6-0.9,3.6,0,5.2c0.9,1.6,2.7,2.6,4.6,2.6h276.8c1.9,0,3.6-1,4.6-2.6
				c0.9-1.6,0.9-3.6,0-5.2L498.8,280c-0.9-1.6-2.7-2.6-4.5-2.6L271.7,277.4L271.7,277.4z"/>
		</defs>
		<clipPath id="SVGID_131_">
			<use xlink:href="#SVGID_129_"  overflow="visible"/>
		</clipPath>
		<clipPath id="SVGID_132_" clip-path="url(#SVGID_131_)">
			<use xlink:href="#SVGID_130_"  overflow="visible"/>
		</clipPath>
		<rect x="223.8" y="262" clip-path="url(#SVGID_132_)" fill="#474749" width="318.4" height="87.4"/>
	</g>
	<g>
		<defs>
			<rect id="SVGID_133_" x="102.3" y="159.4" width="595" height="483"/>
		</defs>
		<defs>
			<path id="SVGID_134_" d="M501.6,527.6c-2.9,0-5.3-2.3-5.3-5.2V345.2H269.7v177.1c0,2.9-2.4,5.2-5.3,5.2s-5.3-2.3-5.3-5.2V340
				c0-2.9,2.4-5.2,5.3-5.2h237.2c2.9,0,5.3,2.3,5.3,5.2v182.4C506.9,525.3,504.5,527.6,501.6,527.6L501.6,527.6z"/>
		</defs>
		<clipPath id="SVGID_135_">
			<use xlink:href="#SVGID_133_"  overflow="visible"/>
		</clipPath>
		<clipPath id="SVGID_136_" clip-path="url(#SVGID_135_)">
			<use xlink:href="#SVGID_134_"  overflow="visible"/>
		</clipPath>
		<rect x="254.1" y="329.7" clip-path="url(#SVGID_136_)" fill="#474749" width="257.8" height="202.9"/>
	</g>
	<g>
		<defs>
			<rect id="SVGID_137_" x="102.3" y="159.4" width="595" height="483"/>
		</defs>
		<defs>
			<path id="SVGID_138_" d="M421.9,524.8c-2.9,0-5.3-2.3-5.3-5.2V384.2c0-0.1,0-0.1-0.1-0.2h-67.1c0,0.1,0,0.1,0,0.2v135.4
				c0,2.9-2.4,5.2-5.3,5.2s-5.3-2.3-5.3-5.2V384.2c0-5.8,4.7-10.6,10.5-10.7h67.2c5.9,0.1,10.6,4.8,10.5,10.7v135.4
				c0,1.4-0.6,2.7-1.6,3.7C424.6,524.2,423.3,524.8,421.9,524.8L421.9,524.8z"/>
		</defs>
		<clipPath id="SVGID_139_">
			<use xlink:href="#SVGID_137_"  overflow="visible"/>
		</clipPath>
		<clipPath id="SVGID_140_" clip-path="url(#SVGID_139_)">
			<use xlink:href="#SVGID_138_"  overflow="visible"/>
		</clipPath>
		<rect x="333.9" y="368.5" clip-path="url(#SVGID_140_)" fill="#474749" width="98.3" height="161.3"/>
	</g>
	<g>
		<defs>
			<rect id="SVGID_141_" x="102.3" y="159.4" width="595" height="483"/>
		</defs>
		<defs>
			<path id="SVGID_142_" d="M461.8,592.9c-2,0-4.1-0.4-6-1c-7.3-2.3-12.1-6.9-13.2-12.7c-0.7-4.2,0.7-8.5,3.7-11.6
				c3-3.1,7.3-4.6,11.5-4.1c1.7,0.2,3.2,1.3,4,2.8c3.1-0.1,6.1,1,8.4,3.1c3.2,3.1,4.8,7.6,4.1,12.1c-0.4,3.7-2.4,7.1-5.4,9.3
				C466.8,592.3,464.3,593,461.8,592.9L461.8,592.9L461.8,592.9z"/>
		</defs>
		<clipPath id="SVGID_143_">
			<use xlink:href="#SVGID_141_"  overflow="visible"/>
		</clipPath>
		<clipPath id="SVGID_144_" clip-path="url(#SVGID_143_)">
			<use xlink:href="#SVGID_142_"  overflow="visible"/>
		</clipPath>
		<rect x="437.4" y="558.4" clip-path="url(#SVGID_144_)" fill="#19BAD7" width="42" height="39.5"/>
	</g>
	<g>
		<defs>
			<rect id="SVGID_145_" x="102.3" y="159.4" width="595" height="483"/>
		</defs>
		<defs>
			<path id="SVGID_146_" d="M644.7,219c-0.2-2.8-0.9-5.5-2.1-8.1c-5.3-10.1-18.2-9.5-22.4-9.2c-8.7,0.5-17.8,0.9-27,1.2
				c-83.3,3.3-165.2,2.1-255.9,0.3l-52.6-1.1l-92.7-1.9c-4.2-0.1-9.7-0.6-15.4-1.2c-18.7-1.8-42-4.1-56.5,5.1
				c-16.2,10.2-15.8,30.5-15.4,46.7c0.1,4.3,0.2,8.3,0,11.8c-1.9,28.8-1.8,58.2-1.6,86.5l1.4,259.2c0,6.8,0.1,18.2,8,25.8
				c7.5,7.3,18.5,7.4,24.9,7.4c29.6,0.3,59.2,0.4,88.9,0.4c134.2,0,269.4-2.9,403-8.6c3.8-0.2,9.5-0.4,14.2-4.2
				c6.4-5.1,7-13.2,7.3-17.6C660.4,480.9,658.3,349.5,644.7,219L644.7,219L644.7,219z M120.4,263.7c0.3-4.1,0.2-8.5,0.1-13.1
				c-0.3-13.6-0.6-27.7,8.1-33.1c5.2-3.3,13.4-4.3,22.4-4.3c8.1,0,16.8,0.8,24.2,1.5c6.1,0.6,11.8,1.1,16.6,1.2l92.7,1.9l52.6,1.1
				c90.9,1.8,173.1,3.1,256.8-0.3c9.2-0.4,18.3-0.8,27.1-1.2c6.2-0.3,7.5,0.7,7.6,0.7c0.2,0.8,0.3,1.6,0.4,2.5
				c10.2,98.2,13.9,197,10.9,295.7c-163.2,3.4-328.6,3.4-491.7,0.2c-6.6-0.1-18.7-0.4-28.4,4.9l-0.9-172.3
				C118.6,321.1,118.5,292.1,120.4,263.7L120.4,263.7z M633.6,617.1c-0.7,0.6-3.8,0.7-5,0.8c-162.8,7-328,9.7-491,8.2
				c-5.6,0-11.3-0.3-14.1-3c-2.8-2.7-3.2-8.8-3.2-14.6l-0.4-67.2c1.5-0.5,2.8-1.5,3.7-2.7c4.2-5.7,14.1-6.3,24.2-6.1
				c163.1,3.2,328.4,3.1,491.6-0.2c-1,26.2-2.4,52.4-4.3,78.6C634.7,615.3,634.1,616.7,633.6,617.1L633.6,617.1z"/>
		</defs>
		<clipPath id="SVGID_147_">
			<use xlink:href="#SVGID_145_"  overflow="visible"/>
		</clipPath>
		<clipPath id="SVGID_148_" clip-path="url(#SVGID_147_)">
			<use xlink:href="#SVGID_146_"  overflow="visible"/>
		</clipPath>
		<rect x="98" y="192.5" clip-path="url(#SVGID_148_)" fill="#474749" width="563.7" height="454.7"/>
	</g>
	<g>
		<defs>
			<rect id="SVGID_149_" x="102.3" y="159.4" width="595" height="483"/>
		</defs>
		<defs>
			<path id="SVGID_150_" d="M500.2,350.9c-4,0-7.9-0.1-11.7-0.2L363.1,348c-38.3-0.8-77.9-1.7-116.7,1.3c-4,0.3-11.5,0.9-16.4-4.2
				c-6.2-6.3-3.3-15.9-2.4-19c5.8-19.3,15.4-37.4,28.3-53c11.4-14.1,28.2-12.4,43-10.8c3.9,0.4,7.9,0.8,11.6,0.9
				c44.8,1.4,90.2,1.3,135-0.2l2.3-0.1c15.4-0.5,31.4-1.1,47.1,1.6c3.9,0.5,7.7,1.8,11.1,3.7c3.7,2.5,6.8,5.8,9.1,9.6
				c10.6,15.8,17.9,33.5,21.6,52.2c0.5,2.7,2,10-2.9,14.9c-2.4,2.2-5.5,3.6-8.8,4C516.8,350.4,508.5,351.1,500.2,350.9L500.2,350.9z
				 M308.4,336.8c18.5,0,36.9,0.4,55,0.8l125.3,2.7c11.4,0.2,23.2,0.5,34.4-1.6c1.1-0.1,2.2-0.5,3.2-1.1c0.3-0.3,0.9-1.4,0-5.6
				c-3.4-17.3-10.2-33.7-20-48.3c-1.5-2.6-3.5-4.8-5.9-6.6c-2.3-1.2-4.8-2-7.3-2.3c-14.6-2.6-30-2-44.9-1.5l-2.3,0.1
				c-45,1.5-90.7,1.6-135.7,0.2c-4.1-0.1-8.3-0.6-12.3-1c-13.9-1.4-25.9-2.6-33.7,7c-12,14.6-20.9,31.4-26.4,49.4l0,0
				c-1.3,4.4-1.3,7.5-0.2,8.7c1.5,1.5,5.7,1.2,8.1,1C266.5,337.3,287.5,336.8,308.4,336.8L308.4,336.8z"/>
		</defs>
		<clipPath id="SVGID_151_">
			<use xlink:href="#SVGID_149_"  overflow="visible"/>
		</clipPath>
		<clipPath id="SVGID_152_" clip-path="url(#SVGID_151_)">
			<use xlink:href="#SVGID_150_"  overflow="visible"/>
		</clipPath>
		<rect x="221.2" y="256.3" clip-path="url(#SVGID_152_)" fill="#474749" width="321.1" height="99.6"/>
	</g>
	<g>
		<defs>
			<rect id="SVGID_153_" x="102.3" y="159.4" width="595" height="483"/>
		</defs>
		<defs>
			<path id="SVGID_154_" d="M269.7,526.5c-2.9,0-5.2-2.3-5.3-5.1l-5.2-172.1c0-1.4,0.5-2.7,1.4-3.8s2.3-1.6,3.7-1.6h0.2
				c2.9,0,5.2,2.3,5.3,5.1l5.2,172.1c0,1.4-0.5,2.7-1.4,3.8c-1,1-2.3,1.6-3.7,1.6H269.7L269.7,526.5z"/>
		</defs>
		<clipPath id="SVGID_155_">
			<use xlink:href="#SVGID_153_"  overflow="visible"/>
		</clipPath>
		<clipPath id="SVGID_156_" clip-path="url(#SVGID_155_)">
			<use xlink:href="#SVGID_154_"  overflow="visible"/>
		</clipPath>
		<rect x="254.2" y="338.9" clip-path="url(#SVGID_156_)" fill="#474749" width="25.7" height="192.6"/>
	</g>
	<g>
		<defs>
			<rect id="SVGID_157_" x="102.3" y="159.4" width="595" height="483"/>
		</defs>
		<defs>
			<path id="SVGID_158_" d="M506,525.6L506,525.6c-1.5,0-2.8-0.6-3.8-1.6c-1-1-1.5-2.3-1.5-3.7c1-55.9-0.3-112.4-3.8-168.2
				c-0.2-2.9,2-5.4,4.9-5.6c2.9-0.2,5.4,2,5.6,4.9c3.5,56,4.8,112.9,3.8,169C511.2,523.3,508.9,525.6,506,525.6L506,525.6L506,525.6
				z"/>
		</defs>
		<clipPath id="SVGID_159_">
			<use xlink:href="#SVGID_157_"  overflow="visible"/>
		</clipPath>
		<clipPath id="SVGID_160_" clip-path="url(#SVGID_159_)">
			<use xlink:href="#SVGID_158_"  overflow="visible"/>
		</clipPath>
		<rect x="491.9" y="341.5" clip-path="url(#SVGID_160_)" fill="#474749" width="24.7" height="189.1"/>
	</g>
	<g>
		<defs>
			<rect id="SVGID_161_" x="102.3" y="159.4" width="595" height="483"/>
		</defs>
		<defs>
			<path id="SVGID_162_" d="M341.6,529.8c-2.9,0-5.2-2.3-5.3-5.1c-1.2-45-0.6-90.6,1.9-135.6c0.2-3.4,0.6-10.6,6.2-14.4
				c3.3-2.2,7.1-2.4,9.6-2.5l59.3-2.4c3.5-0.1,11.7-0.5,16.1,5.5c2.5,3.4,2.6,7.4,2.6,10c1.7,45.4,0.8,91-2.5,136.3
				c-0.1,1.9-1.3,3.5-3,4.4c-1.7,0.8-3.7,0.7-5.3-0.4c-1.6-1.1-2.4-2.9-2.3-4.7c3.3-45,4.1-90.1,2.5-135.2c0.1-1.4-0.2-2.9-0.7-4.2
				c-1.1-1.4-5.6-1.3-7.1-1.2l-59.3,2.4c-1.4-0.1-2.8,0.2-4,0.7c-1.3,0.9-1.5,4.8-1.6,6.3c-2.4,44.7-3.1,90-1.8,134.7
				c0,1.4-0.5,2.7-1.4,3.8S343,529.8,341.6,529.8L341.6,529.8L341.6,529.8z"/>
		</defs>
		<clipPath id="SVGID_163_">
			<use xlink:href="#SVGID_161_"  overflow="visible"/>
		</clipPath>
		<clipPath id="SVGID_164_" clip-path="url(#SVGID_163_)">
			<use xlink:href="#SVGID_162_"  overflow="visible"/>
		</clipPath>
		<rect x="330.7" y="364.8" clip-path="url(#SVGID_164_)" fill="#474749" width="107" height="170.1"/>
	</g>
	<g>
		<defs>
			<rect id="SVGID_165_" x="102.3" y="159.4" width="595" height="483"/>
		</defs>
		<defs>
			<path id="SVGID_166_" d="M367.2,450.5c-0.4,1.8-0.5,3.7-0.4,5.5c0.2,1.9,1.2,3.6,2.7,4.7c1.5,0.7,3.1,1,4.7,0.8
				c2.4-0.2,4.9-0.9,6.2-2.9c0.6-1,0.9-2.1,0.9-3.3C381.6,447.8,368.6,441.6,367.2,450.5L367.2,450.5z"/>
		</defs>
		<clipPath id="SVGID_167_">
			<use xlink:href="#SVGID_165_"  overflow="visible"/>
		</clipPath>
		<clipPath id="SVGID_168_" clip-path="url(#SVGID_167_)">
			<use xlink:href="#SVGID_166_"  overflow="visible"/>
		</clipPath>
		<rect x="361.8" y="441.1" clip-path="url(#SVGID_168_)" fill="#FFFFFF" width="24.6" height="25.5"/>
	</g>
	<g>
		<defs>
			<rect id="SVGID_169_" x="102.3" y="159.4" width="595" height="483"/>
		</defs>
		<defs>
			<path id="SVGID_170_" d="M169.9,609c-2.6,0-4.8-1.8-5.2-4.3c-3-17-4.7-34.2-5.3-51.5c-0.2-5.2,3-8,6.1-8.3
				c2.2-0.3,4.3,0.9,5.3,2.9c1,2,0.6,4.3-0.9,6c0.6,16.5,2.3,32.9,5.1,49.2c0.3,1.5-0.2,3.1-1.2,4.3
				C172.9,608.4,171.5,609.1,169.9,609L169.9,609L169.9,609z"/>
		</defs>
		<clipPath id="SVGID_171_">
			<use xlink:href="#SVGID_169_"  overflow="visible"/>
		</clipPath>
		<clipPath id="SVGID_172_" clip-path="url(#SVGID_171_)">
			<use xlink:href="#SVGID_170_"  overflow="visible"/>
		</clipPath>
		<rect x="154.4" y="539.9" clip-path="url(#SVGID_172_)" fill="#474749" width="25.8" height="74.2"/>
	</g>
	<g>
		<defs>
			<rect id="SVGID_173_" x="102.3" y="159.4" width="595" height="483"/>
		</defs>
		<defs>
			<path id="SVGID_174_" d="M400.6,585.8c-17.5,0-35-1.1-52.2-2.1c-28.3-1.7-57.5-3.5-85.3-0.4c-1.9,0.2-3.7-0.6-4.8-2.1
				c-1.1-1.5-1.3-3.5-0.6-5.2c0.8-1.7,2.4-2.9,4.2-3.1c28.8-3.2,58.4-1.4,87.2,0.4c28.7,1.8,58.1,3.6,86.2,0.3
				c1.9-0.2,3.7,0.6,4.8,2.1c1.1,1.5,1.4,3.5,0.6,5.2c-0.7,1.7-2.4,2.9-4.2,3.1C424.6,585.3,412.6,585.9,400.6,585.8L400.6,585.8
				L400.6,585.8z"/>
		</defs>
		<clipPath id="SVGID_175_">
			<use xlink:href="#SVGID_173_"  overflow="visible"/>
		</clipPath>
		<clipPath id="SVGID_176_" clip-path="url(#SVGID_175_)">
			<use xlink:href="#SVGID_174_"  overflow="visible"/>
		</clipPath>
		<rect x="252.2" y="566.1" clip-path="url(#SVGID_176_)" fill="#474749" width="194" height="24.7"/>
	</g>
	<g>
		<defs>
			<rect id="SVGID_177_" x="102.3" y="159.4" width="595" height="483"/>
		</defs>
		<defs>
			<path id="SVGID_178_" d="M459.8,601.3c-5.2,0-10.2-1.5-14.5-4.3c-2.3-1.5-4.4-3.4-5.9-5.7l0,0c-5.8-8.7-5.8-17.8,0.2-24.9
				c6.9-8.3,20.6-11.8,30.5-7.7c8.8,3.6,13.2,12.2,12,23.4c-0.2,4.1-1.6,8-4,11.4c-1.7,2.1-3.8,3.9-6.3,5c-3.6,1.8-7.6,2.8-11.6,2.9
				L459.8,601.3L459.8,601.3z M448.2,585.4c0.8,1.1,1.8,2,3,2.8c2.6,1.7,5.7,2.7,8.9,2.6c2.4,0,4.8-0.6,6.9-1.7
				c1.1-0.5,2-1.2,2.8-2.1c1.1-1.8,1.8-3.9,1.9-6.1c0.7-6.6-1.2-10.8-5.6-12.6c-5.7-2.4-14.2-0.2-18.3,4.7
				C444.8,576.5,445,580.7,448.2,585.4L448.2,585.4L448.2,585.4z"/>
		</defs>
		<clipPath id="SVGID_179_">
			<use xlink:href="#SVGID_177_"  overflow="visible"/>
		</clipPath>
		<clipPath id="SVGID_180_" clip-path="url(#SVGID_179_)">
			<use xlink:href="#SVGID_178_"  overflow="visible"/>
		</clipPath>
		<rect x="430.1" y="551.9" clip-path="url(#SVGID_180_)" fill="#474749" width="57.2" height="54.4"/>
	</g>
	<g>
		<defs>
			<rect id="SVGID_181_" x="102.3" y="159.4" width="595" height="483"/>
		</defs>
		<defs>
			<path id="SVGID_182_" d="M487.1,583.4h-8.2c-1.9,0-3.6-1-4.5-2.7c-0.9-1.6-0.9-3.6,0.1-5.2c1-1.6,2.7-2.6,4.6-2.6
				c15.9,0.2,32.2-0.3,47.9-0.7c23-0.7,46.8-1.4,70.2,0c1.9,0.1,3.6,1.2,4.4,2.9c0.8,1.7,0.7,3.7-0.3,5.2c-1,1.6-2.8,2.5-4.7,2.3
				c-22.9-1.4-46.5-0.7-69.2,0C514,583,500.5,583.4,487.1,583.4L487.1,583.4z"/>
		</defs>
		<clipPath id="SVGID_183_">
			<use xlink:href="#SVGID_181_"  overflow="visible"/>
		</clipPath>
		<clipPath id="SVGID_184_" clip-path="url(#SVGID_183_)">
			<use xlink:href="#SVGID_182_"  overflow="visible"/>
		</clipPath>
		<rect x="468.7" y="566.3" clip-path="url(#SVGID_184_)" fill="#474749" width="138.4" height="22"/>
	</g>
	<g>
		<defs>
			<rect id="SVGID_185_" x="102.3" y="159.4" width="595" height="483"/>
		</defs>
		<defs>
			<path id="SVGID_186_" d="M642.8,264c27.3,0,49.5-22,49.5-49.2s-22.2-49.2-49.5-49.2c-27.3,0-49.5,22-49.5,49.2
				S615.5,264,642.8,264L642.8,264z"/>
		</defs>
		<clipPath id="SVGID_187_">
			<use xlink:href="#SVGID_185_"  overflow="visible"/>
		</clipPath>
		<clipPath id="SVGID_188_" clip-path="url(#SVGID_187_)">
			<use xlink:href="#SVGID_186_"  overflow="visible"/>
		</clipPath>
		<rect x="588.3" y="160.5" clip-path="url(#SVGID_188_)" fill="#FFFFFF" width="109" height="108.5"/>
	</g>
	<g>
		<defs>
			<rect id="SVGID_189_" x="102.3" y="159.4" width="595" height="483"/>
		</defs>
		<defs>
			<path id="SVGID_190_" d="M642.8,269.2c-30.3,0-54.8-24.4-54.8-54.5c0-30.1,24.5-54.5,54.8-54.5s54.8,24.4,54.8,54.5
				C697.6,244.8,673.1,269.2,642.8,269.2L642.8,269.2L642.8,269.2z M642.8,170.7c-24.4,0-44.2,19.7-44.2,44c0,24.3,19.8,44,44.2,44
				s44.2-19.7,44.2-44C687.1,190.4,667.3,170.8,642.8,170.7L642.8,170.7L642.8,170.7z"/>
		</defs>
		<clipPath id="SVGID_191_">
			<use xlink:href="#SVGID_189_"  overflow="visible"/>
		</clipPath>
		<clipPath id="SVGID_192_" clip-path="url(#SVGID_191_)">
			<use xlink:href="#SVGID_190_"  overflow="visible"/>
		</clipPath>
		<rect x="583.1" y="155.2" clip-path="url(#SVGID_192_)" fill="#474749" width="119.6" height="119"/>
	</g>
	<g>
		<defs>
			<rect id="SVGID_193_" x="102.3" y="159.4" width="595" height="483"/>
		</defs>
		<defs>
			<path id="SVGID_194_" d="M634.8,234.2c-1,0-2.1-0.4-2.8-1.2L616.8,218c-1.5-1.5-1.4-4,0.1-5.5c1.5-1.5,3.9-1.5,5.5-0.1l12.4,12.3
				l28.5-28.3c1.6-1.4,4-1.4,5.5,0.1c1.5,1.5,1.5,3.9,0.1,5.5l-31.3,31.1C636.8,233.8,635.8,234.2,634.8,234.2L634.8,234.2
				L634.8,234.2z"/>
		</defs>
		<clipPath id="SVGID_195_">
			<use xlink:href="#SVGID_193_"  overflow="visible"/>
		</clipPath>
		<clipPath id="SVGID_196_" clip-path="url(#SVGID_195_)">
			<use xlink:href="#SVGID_194_"  overflow="visible"/>
		</clipPath>
		<rect x="610.8" y="190.4" clip-path="url(#SVGID_196_)" fill="#19BAD7" width="64.2" height="48.9"/>
	</g>
	<g>
		<defs>
			<rect id="SVGID_197_" x="102.3" y="159.4" width="595" height="483"/>
		</defs>
		<defs>
			<path id="SVGID_198_" d="M642.6,269.4c-6.9,0.2-13.8-0.9-20.3-3.3c-8.1-3.2-17.1-7.5-22.6-14.6c-7.1-9.1-10.7-16.1-11-29.3
				c-0.3-10.2-0.5-21.8,4.2-32.3l0,0c5.5-12.8,16.2-22.6,29.4-27c15.8-5.2,35.1-3.1,51.8,5.9c6.2,3.3,13.9,10.3,16.7,17.2
				c0.4,1,0.8,2,1.2,2.9c2,4.7,4,9.7,4.7,15.4c0.9,6.4,1,12.8,0.3,19.2c-2.1,14.6-11.6,28.4-26.7,38.8c-3.2,2.3-6.8,4.2-10.5,5.5
				c-4.2,1.1-8.6,1.7-13,1.7C645.4,269.3,644,269.4,642.6,269.4L642.6,269.4z M602.5,194.2c-3.8,8.3-3.5,18.7-3.3,27.8
				c0.3,10.5,2.8,15.4,8.8,23.2c4,5.1,11.4,8.5,18.2,11.2c5.9,2.4,12.4,2.7,20.2,2.5c3.4,0.1,6.8-0.3,10.1-1.2
				c2.8-1,5.3-2.4,7.7-4.1c7.3-5.1,20-15.9,22.3-31.7c0.6-5.5,0.5-11-0.3-16.5c-0.5-4.2-2.2-8.2-4-12.5c-0.4-1-0.9-2-1.3-3.1
				c-1.7-4.3-7.6-9.5-11.9-11.9c-14.2-7.6-30.4-9.5-43.5-5.2c-10.4,3.5-18.9,11.3-23.2,21.4H602.5L602.5,194.2z"/>
		</defs>
		<clipPath id="SVGID_199_">
			<use xlink:href="#SVGID_197_"  overflow="visible"/>
		</clipPath>
		<clipPath id="SVGID_200_" clip-path="url(#SVGID_199_)">
			<use xlink:href="#SVGID_198_"  overflow="visible"/>
		</clipPath>
		<rect x="583.6" y="155" clip-path="url(#SVGID_200_)" fill="#474749" width="118.9" height="119.4"/>
	</g>
</g>
</svg>
